<?xml version="1.0" encoding="UTF-8" standalone="no" ?>
<!DOCTYPE svg PUBLIC "-//W3C//DTD SVG 1.1//EN" "http://www.w3.org/Graphics/SVG/1.1/DTD/svg11.dtd">
<svg xmlns="http://www.w3.org/2000/svg" xmlns:xlink="http://www.w3.org/1999/xlink" version="1.1" width="1280" height="1024" viewBox="0 0 1280 1024" xml:space="preserve">
<desc>Created with Fabric.js 3.6.3</desc>
<defs>
</defs>
<g transform="matrix(1.9662058371735787 0 0 1.9662058371735787 640.2456813819576 512.1966205837173)" id="background-logo"  >
<rect style="stroke: none; stroke-width: 1; stroke-dasharray: none; stroke-linecap: butt; stroke-dashoffset: 0; stroke-linejoin: miter; stroke-miterlimit: 4; fill: rgb(39,39,39); fill-rule: nonzero; opacity: 1;"  paint-order="stroke"  x="-325" y="-260" rx="0" ry="0" width="650" height="520" />
</g>
<g transform="matrix(1.9699870022450665 0 0 1.9699870022450665 639.7454893696688 732.4353921210351)" id="text-logo-path"  >
<path style="stroke: none; stroke-width: 0; stroke-dasharray: none; stroke-linecap: butt; stroke-dashoffset: 0; stroke-linejoin: miter; stroke-miterlimit: 4; fill: rgb(55,182,255); fill-rule: nonzero; opacity: 1;"  paint-order="stroke"  transform=" translate(-261.09499999999997, 28.59)" d="M 4.57 -3.44 L 4.57 -3.44 L 6.48 -6.33 Q 12.23 -2.58 19.12 -2.58 Q 26.02 -2.58 29.69 -5.33 Q 33.36 -8.09 33.36 -13.28 L 33.36 -13.28 Q 33.36 -16.88 30.72 -20.12 Q 28.09 -23.36 24.32 -25.96 Q 20.55 -28.55 16.8 -31.27 Q 13.05 -33.98 10.41 -37.75 Q 7.77 -41.52 7.77 -45.86 L 7.77 -45.86 Q 7.77 -51.52 11.97 -54.84 Q 16.17 -58.16 23.32 -58.16 Q 30.47 -58.16 36.64 -55.27 L 36.64 -55.27 L 35.27 -52.15 Q 29.41 -54.61 23.67 -54.65 L 23.67 -54.65 Q 11.99 -54.65 11.99 -46.02 L 11.99 -46.02 Q 11.99 -42.27 14.63 -39 Q 17.27 -35.74 21.04 -33.22 Q 24.8 -30.7 28.55 -28.07 Q 32.3 -25.43 34.96 -21.76 Q 37.62 -18.09 37.62 -13.75 L 37.62 -13.75 Q 37.62 -6.48 32.73 -2.75 Q 27.85 0.98 19.24 0.98 Q 10.63 0.98 4.57 -3.44 Z M 57.68 -6.97 Q 50.16 -14.73 50.16 -25.96 Q 50.16 -37.19 57.68 -44.96 Q 65.2 -52.73 76.31 -52.73 Q 87.42 -52.73 94.94 -44.96 Q 102.46 -37.19 102.46 -25.96 Q 102.46 -14.73 94.94 -6.97 Q 87.42 0.78 76.31 0.78 Q 65.2 0.78 57.68 -6.97 Z M 60.35 -42.66 Q 53.98 -35.86 53.98 -25.98 Q 53.98 -16.09 60.35 -9.34 Q 66.72 -2.58 76.35 -2.58 Q 85.98 -2.58 92.3 -9.34 Q 98.63 -16.09 98.63 -25.98 Q 98.63 -35.86 92.3 -42.66 Q 85.98 -49.45 76.35 -49.45 Q 66.72 -49.45 60.35 -42.66 Z M 123.4 -6.89 Q 115.27 -14.57 115.27 -25.96 Q 115.27 -37.34 122.34 -45.04 Q 129.41 -52.73 140.63 -52.73 L 140.63 -52.73 Q 149.65 -52.73 158.32 -49.92 L 158.32 -49.92 L 157.34 -46.88 Q 149.02 -49.45 140.14 -49.45 Q 131.25 -49.45 125.21 -42.7 Q 119.18 -35.94 119.18 -26.13 Q 119.18 -16.33 126.19 -9.45 Q 133.2 -2.58 142.4 -2.58 Q 151.6 -2.58 157.66 -5.12 L 157.66 -5.12 L 158.87 -2.58 Q 152.85 0.78 142.19 0.78 Q 131.52 0.78 123.4 -6.89 Z M 175.66 0 L 171.99 0 L 171.99 -51.91 L 175.66 -51.91 L 175.66 0 Z M 189.96 0 L 186.21 0 L 207.97 -52.23 L 210.12 -52.23 L 232.03 0 L 227.97 0 L 220.43 -18.01 L 197.38 -18.01 L 189.96 0 Z M 206.68 -40.31 L 198.67 -21.13 L 219.14 -21.13 L 211.25 -40.23 Q 209.38 -44.73 208.83 -46.33 L 208.83 -46.33 Q 207.62 -42.73 206.68 -40.31 L 206.68 -40.31 Z M 270.08 0 L 242.58 0 L 242.58 -51.91 L 246.25 -51.91 L 246.25 -3.36 L 270.08 -3.36 L 270.08 0 Z M 316.33 -7.56 Q 307.34 -16.09 307.34 -28.61 Q 307.34 -41.13 315.2 -49.65 Q 323.05 -58.16 335.27 -58.16 L 335.27 -58.16 Q 344.88 -58.16 354.73 -54.96 L 354.73 -54.96 L 353.67 -51.76 Q 344.06 -54.65 335.27 -54.65 L 335.27 -54.65 Q 324.8 -54.65 318.16 -47.13 Q 311.52 -39.61 311.52 -28.73 Q 311.52 -17.85 319.24 -10.21 Q 326.95 -2.58 337.77 -2.58 L 337.77 -2.58 Q 347.23 -2.58 354.06 -5.43 L 354.06 -5.43 L 355.27 -2.73 Q 352.23 -0.98 347.32 0 Q 342.42 0.98 337.77 0.98 L 337.77 0.98 Q 325.31 0.98 316.33 -7.56 Z M 372.68 -6.97 Q 365.16 -14.73 365.16 -25.96 Q 365.16 -37.19 372.68 -44.96 Q 380.2 -52.73 391.31 -52.73 Q 402.42 -52.73 409.94 -44.96 Q 417.46 -37.19 417.46 -25.96 Q 417.46 -14.73 409.94 -6.97 Q 402.42 0.78 391.31 0.78 Q 380.2 0.78 372.68 -6.97 Z M 375.35 -42.66 Q 368.98 -35.86 368.98 -25.98 Q 368.98 -16.09 375.35 -9.34 Q 381.72 -2.58 391.35 -2.58 Q 400.98 -2.58 407.3 -9.34 Q 413.63 -16.09 413.63 -25.98 Q 413.63 -35.86 407.3 -42.66 Q 400.98 -49.45 391.35 -49.45 Q 381.72 -49.45 375.35 -42.66 Z M 433.48 -0.16 L 433.48 -0.16 L 433.48 -51.91 Q 439.88 -52.38 448.52 -52.38 L 448.52 -52.38 Q 460.51 -52.38 468.55 -45 Q 476.6 -37.62 476.6 -24.88 Q 476.6 -12.15 469.2 -5.76 Q 461.8 0.63 450.12 0.63 L 450.12 0.63 Q 442.03 0.63 433.48 -0.16 Z M 437.3 -48.79 L 437.3 -3.28 Q 442.11 -2.73 450.12 -2.73 L 450.12 -2.73 Q 460.35 -2.73 466.54 -8.24 Q 472.73 -13.75 472.73 -24.88 Q 472.73 -36.02 465.74 -42.56 Q 458.75 -49.1 448.52 -49.1 L 448.52 -49.1 Q 441.25 -49.1 437.3 -48.79 L 437.3 -48.79 Z M 517.62 0 L 492.58 0 L 492.58 -51.91 L 516.8 -51.91 L 516.8 -48.71 L 496.25 -48.71 L 496.25 -29.84 L 514.8 -29.84 L 514.8 -26.72 L 496.25 -26.72 L 496.25 -3.36 L 517.62 -3.36 L 517.62 0 Z" stroke-linecap="round" />
</g>
<g transform="matrix(1.687104135875442 0 0 1.687104135875442 640.2456813819576 405.24846064973394)" id="logo-logo"  >
<g style=""  paint-order="stroke"   >
		<g transform="matrix(1.2359147960373045 0 0 1.2359147960373045 0 0)"  >
<g style=""  paint-order="stroke"   >
		<g transform="matrix(1 0 0 1 -19.610709032463177 -20.376076542114276)"  >
<path style="stroke: rgb(55,182,255); stroke-width: 2; stroke-dasharray: none; stroke-linecap: round; stroke-dashoffset: 0; stroke-linejoin: round; stroke-miterlimit: 4; fill: none; fill-rule: nonzero; opacity: 1;"  paint-order="stroke"  transform=" translate(-80.38526539121582, -79.6203483071445)" d="M 19.46 159.29 A 100 100 0 0 1 160.82 20.61" stroke-linecap="round" />
</g>
		<g transform="matrix(1 0 0 1 19.589734608784198 19.254651692855504)"  >
<path style="stroke: rgb(55,182,255); stroke-width: 2; stroke-dasharray: none; stroke-linecap: round; stroke-dashoffset: 0; stroke-linejoin: round; stroke-miterlimit: 4; fill: none; fill-rule: nonzero; opacity: 1;"  paint-order="stroke"  transform=" translate(-119.5857090324632, -119.25107654211428)" d="M 178.83 38.46 A 100 100 0 0 1 39.13 179.35" stroke-linecap="round" />
</g>
		<g transform="matrix(1 0 0 1 0.004025576320998425 0.003575150741227162)"  >
<line style="stroke: rgb(55,182,255); stroke-width: 2; stroke-dasharray: none; stroke-linecap: round; stroke-dashoffset: 0; stroke-linejoin: round; stroke-miterlimit: 4; fill: none; fill-rule: nonzero; opacity: 1;"  paint-order="stroke"  x1="92.4" y1="-92.4" x2="-92.4" y2="92.4" />
</g>
</g>
</g>
</g>
</g>
<g transform="matrix(1.9699870022450665 0 0 1.9699870022450665 550.4764338539468 339.1390251037666)" id="tagline-b78e174c-0240-414c-8059-3ee0a8b73578-logo-path"  >
<path style="stroke: none; stroke-width: 0; stroke-dasharray: none; stroke-linecap: butt; stroke-dashoffset: 0; stroke-linejoin: miter; stroke-miterlimit: 4; fill: rgb(55,182,255); fill-rule: nonzero; opacity: 1;"  paint-order="stroke"  transform=" translate(-19.515, 26.45)" d="M 4.23 -3.18 L 4.23 -3.18 L 6 -5.85 Q 11.31 -2.38 17.69 -2.38 Q 24.06 -2.38 27.46 -4.93 Q 30.86 -7.48 30.86 -12.29 L 30.86 -12.29 Q 30.86 -15.61 28.42 -18.61 Q 25.98 -21.61 22.49 -24.01 Q 19.01 -26.41 15.54 -28.92 Q 12.07 -31.44 9.63 -34.92 Q 7.19 -38.41 7.19 -42.42 L 7.19 -42.42 Q 7.19 -47.66 11.07 -50.73 Q 14.96 -53.8 21.57 -53.8 Q 28.18 -53.8 33.89 -51.13 L 33.89 -51.13 L 32.63 -48.24 Q 27.21 -50.51 21.9 -50.55 L 21.9 -50.55 Q 11.09 -50.55 11.09 -42.56 L 11.09 -42.56 Q 11.09 -39.1 13.53 -36.08 Q 15.97 -33.06 19.46 -30.73 Q 22.94 -28.4 26.41 -25.96 Q 29.88 -23.52 32.34 -20.13 Q 34.8 -16.73 34.8 -12.72 L 34.8 -12.72 Q 34.8 -6 30.28 -2.55 Q 25.76 0.9 17.8 0.9 Q 9.83 0.9 4.23 -3.18 Z" stroke-linecap="round" />
</g>
<g transform="matrix(1.9699870022450665 0 0 1.9699870022450665 715.8947258296263 481.20398870361555)" id="tagline-3b245705-303e-4cb9-9d9c-77090c76c828-logo-path"  >
<path style="stroke: none; stroke-width: 0; stroke-dasharray: none; stroke-linecap: butt; stroke-dashoffset: 0; stroke-linejoin: miter; stroke-miterlimit: 4; fill: rgb(55,182,255); fill-rule: nonzero; opacity: 1;"  paint-order="stroke"  transform=" translate(-28.814999999999998, 26.45)" d="M 14.96 -6.99 Q 6.65 -14.89 6.65 -26.47 Q 6.65 -38.05 13.91 -45.92 Q 21.17 -53.8 32.48 -53.8 L 32.48 -53.8 Q 41.37 -53.8 50.48 -50.84 L 50.48 -50.84 L 49.5 -47.88 Q 40.61 -50.55 32.48 -50.55 L 32.48 -50.55 Q 22.8 -50.55 16.66 -43.59 Q 10.51 -36.64 10.51 -26.58 Q 10.51 -16.51 17.65 -9.45 Q 24.79 -2.38 34.8 -2.38 L 34.8 -2.38 Q 43.54 -2.38 49.86 -5.02 L 49.86 -5.02 L 50.98 -2.53 Q 48.17 -0.9 43.63 0 Q 39.1 0.9 34.8 0.9 L 34.8 0.9 Q 23.27 0.9 14.96 -6.99 Z" stroke-linecap="round" />
</g>
</svg>