<?xml version="1.0" encoding="UTF-8" standalone="no" ?>
<!DOCTYPE svg PUBLIC "-//W3C//DTD SVG 1.1//EN" "http://www.w3.org/Graphics/SVG/1.1/DTD/svg11.dtd">
<svg xmlns="http://www.w3.org/2000/svg" xmlns:xlink="http://www.w3.org/1999/xlink" version="1.1" width="1280" height="1024" viewBox="0 0 1280 1024" xml:space="preserve">
<desc>Created with Fabric.js 3.6.3</desc>
<defs>
</defs>
<g transform="matrix(1.9692780337941629 0 0 1.9692780337941629 640.0153846153846 512.012312418764)" id="background-logo"  >
<rect style="stroke: none; stroke-width: 1; stroke-dasharray: none; stroke-linecap: butt; stroke-dashoffset: 0; stroke-linejoin: miter; stroke-miterlimit: 4; fill: rgb(15,15,15); fill-rule: nonzero; opacity: 1;"  paint-order="stroke"  x="-325" y="-260" rx="0" ry="0" width="650" height="520" />
</g>
<g transform="matrix(1.9692780337941629 0 0 1.9692780337941629 802.3656427244283 509.90955671983926)" id="text-logo-path"  >
<path style="stroke: rgb(255,255,255); stroke-width: 0; stroke-dasharray: none; stroke-linecap: butt; stroke-dashoffset: 0; stroke-linejoin: miter; stroke-miterlimit: 10; fill: rgb(43,164,198); fill-rule: nonzero; opacity: 1;"  paint-order="stroke"  transform=" translate(-177.70999999999998, 23.724999999999998)" d="M 5.85 -9.13 L 5.85 -9.13 L 5.85 -15.33 L 10.94 -15.33 L 10.94 -8.84 Q 10.94 -6.2 12.78 -4.74 Q 14.61 -3.28 18.18 -3.28 Q 21.74 -3.28 23.58 -4.74 Q 25.41 -6.2 25.41 -8.72 Q 25.41 -11.23 24.86 -12.73 Q 24.31 -14.22 22.63 -15.9 L 22.63 -15.9 L 9.77 -28.48 Q 7.52 -30.73 6.68 -32.88 Q 5.85 -35.04 5.85 -38.32 L 5.85 -38.32 Q 5.85 -43.2 8.88 -45.87 Q 11.91 -48.55 18.04 -48.55 L 18.04 -48.55 Q 29.8 -48.55 29.8 -38.32 L 29.8 -38.32 L 29.8 -32.12 L 24.67 -32.12 L 24.67 -38.6 Q 24.67 -41.24 22.96 -42.7 Q 21.24 -44.16 17.8 -44.16 Q 14.36 -44.16 12.65 -42.7 Q 10.94 -41.24 10.94 -38.69 Q 10.94 -36.14 11.46 -34.68 Q 11.98 -33.22 13.72 -31.62 L 13.72 -31.62 L 26.8 -19.07 Q 28.91 -16.72 29.71 -14.56 Q 30.51 -12.4 30.51 -9.13 L 30.51 -9.13 Q 30.51 1.1 18.18 1.1 Q 5.85 1.1 5.85 -9.13 Z M 42.52 -9.13 L 42.52 -9.13 L 42.52 -38.32 Q 42.52 -43.2 45.63 -45.87 Q 48.73 -48.55 54.89 -48.55 Q 61.06 -48.55 64.2 -45.87 Q 67.33 -43.2 67.33 -38.32 L 67.33 -38.32 L 67.33 -9.13 Q 67.33 -4.24 64.23 -1.57 Q 61.13 1.1 54.96 1.1 Q 48.8 1.1 45.66 -1.57 Q 42.52 -4.24 42.52 -9.13 Z M 47.62 -38.32 L 47.62 -9.13 Q 47.62 -3.28 54.93 -3.28 Q 62.24 -3.28 62.24 -9.13 L 62.24 -9.13 L 62.24 -38.32 Q 62.24 -44.16 54.93 -44.16 Q 47.62 -44.16 47.62 -38.32 L 47.62 -38.32 Z M 79.74 -9.13 L 79.74 -9.13 L 79.74 -38.32 Q 79.74 -43.2 82.73 -45.87 Q 85.73 -48.55 91.71 -48.55 Q 97.7 -48.55 100.77 -45.87 Q 103.83 -43.2 103.83 -38.32 L 103.83 -38.32 L 103.83 -31.4 L 98.74 -31.4 L 98.74 -38.32 Q 98.74 -44.16 91.78 -44.16 Q 84.83 -44.16 84.83 -38.32 L 84.83 -38.32 L 84.83 -9.13 Q 84.83 -3.28 91.78 -3.28 Q 98.74 -3.28 98.74 -9.13 L 98.74 -9.13 L 98.74 -13.15 L 103.83 -13.15 L 103.83 -9.13 Q 103.83 -4.24 100.84 -1.57 Q 97.84 1.1 91.86 1.1 Q 85.87 1.1 82.8 -1.57 Q 79.74 -4.24 79.74 -9.13 Z M 121.69 0 L 116.59 0 L 116.59 -47.44 L 121.69 -47.44 L 121.69 0 Z M 134.81 -9.13 L 134.81 -9.13 L 134.81 -16.43 Q 134.81 -26.66 145.32 -26.66 L 145.32 -26.66 L 153.77 -26.66 L 153.77 -38.6 Q 153.77 -41.24 152.1 -42.7 Q 150.42 -44.16 147.14 -44.16 L 147.14 -44.16 Q 140.65 -44.16 140.65 -38.6 L 140.65 -38.6 L 140.65 -34.33 L 135.52 -34.33 L 135.52 -38.32 Q 135.52 -43.2 138.41 -45.87 Q 141.29 -48.55 147.14 -48.55 Q 152.99 -48.55 155.94 -45.87 Q 158.9 -43.2 158.9 -38.32 L 158.9 -38.32 L 158.9 0 L 156.69 0 L 154.8 -4.67 Q 153.27 -2.03 150.79 -0.46 Q 148.32 1.1 145.32 1.1 L 145.32 1.1 Q 134.81 1.1 134.81 -9.13 Z M 139.9 -16.43 L 139.9 -9.13 Q 139.9 -6.34 141.08 -4.81 Q 142.26 -3.28 145.32 -3.28 Q 148.39 -3.28 151.01 -5.65 Q 153.63 -8.02 153.77 -10.37 L 153.77 -10.37 L 153.77 -22.28 L 145.32 -22.28 Q 142.26 -22.28 141.08 -20.75 Q 139.9 -19.21 139.9 -16.43 L 139.9 -16.43 Z M 191.23 0 L 172.77 0 L 172.77 -47.44 L 177.87 -47.44 L 177.87 -4.38 L 191.23 -4.38 L 191.23 0 Z M 215.65 -9.13 L 215.65 -9.13 L 215.65 -38.32 Q 215.65 -43.2 218.64 -45.87 Q 221.64 -48.55 227.63 -48.55 Q 233.61 -48.55 236.68 -45.87 Q 239.75 -43.2 239.75 -38.32 L 239.75 -38.32 L 239.75 -31.4 L 234.65 -31.4 L 234.65 -38.32 Q 234.65 -44.16 227.7 -44.16 Q 220.75 -44.16 220.75 -38.32 L 220.75 -38.32 L 220.75 -9.13 Q 220.75 -3.28 227.7 -3.28 Q 234.65 -3.28 234.65 -9.13 L 234.65 -9.13 L 234.65 -13.15 L 239.75 -13.15 L 239.75 -9.13 Q 239.75 -4.24 236.75 -1.57 Q 233.76 1.1 227.77 1.1 Q 221.78 1.1 218.71 -1.57 Q 215.65 -4.24 215.65 -9.13 Z M 251.4 -9.13 L 251.4 -9.13 L 251.4 -38.32 Q 251.4 -43.2 254.5 -45.87 Q 257.6 -48.55 263.77 -48.55 Q 269.94 -48.55 273.07 -45.87 Q 276.21 -43.2 276.21 -38.32 L 276.21 -38.32 L 276.21 -9.13 Q 276.21 -4.24 273.11 -1.57 Q 270.01 1.1 263.84 1.1 Q 257.67 1.1 254.54 -1.57 Q 251.4 -4.24 251.4 -9.13 Z M 256.5 -38.32 L 256.5 -9.13 Q 256.5 -3.28 263.81 -3.28 Q 271.11 -3.28 271.11 -9.13 L 271.11 -9.13 L 271.11 -38.32 Q 271.11 -44.16 263.81 -44.16 Q 256.5 -44.16 256.5 -38.32 L 256.5 -38.32 Z M 301.48 0 L 289.72 0 L 289.72 -47.44 L 301.48 -47.44 Q 307.18 -47.44 310.13 -44.75 Q 313.07 -42.06 313.07 -37.21 L 313.07 -37.21 L 313.07 -10.23 Q 313.07 -5.35 310.16 -2.67 Q 307.26 0 301.48 0 L 301.48 0 Z M 294.82 -43.06 L 294.82 -4.38 L 301.48 -4.38 Q 307.97 -4.38 307.97 -10.23 L 307.97 -10.23 L 307.97 -37.21 Q 307.97 -39.99 306.29 -41.53 Q 304.62 -43.06 301.48 -43.06 L 301.48 -43.06 L 294.82 -43.06 Z M 325.47 -9.13 L 325.47 -9.13 L 325.47 -38.32 Q 325.47 -43.2 328.46 -45.87 Q 331.46 -48.55 337.45 -48.55 Q 343.44 -48.55 346.5 -45.87 Q 349.57 -43.2 349.57 -38.32 L 349.57 -38.32 L 349.57 -22.28 L 330.57 -22.28 L 330.57 -9.13 Q 330.57 -3.28 337.52 -3.28 Q 344.47 -3.28 344.47 -9.13 L 344.47 -9.13 L 344.47 -13.15 L 349.57 -13.15 L 349.57 -9.13 Q 349.57 -4.24 346.57 -1.57 Q 343.58 1.1 337.59 1.1 Q 331.6 1.1 328.54 -1.57 Q 325.47 -4.24 325.47 -9.13 Z M 330.57 -38.32 L 330.57 -26.66 L 344.47 -26.66 L 344.47 -38.32 Q 344.47 -44.16 337.52 -44.16 Q 330.57 -44.16 330.57 -38.32 L 330.57 -38.32 Z" stroke-linecap="round" />
</g>
<g transform="matrix(1.1583959385013698 0 0 1.1583959385013702 272.35275722519464 510.8666201087842)" id="logo-logo"  >
<g style=""  paint-order="stroke"   >
		<g transform="matrix(1.246116777507345 0 0 1.246116777507345 0 -2.842171e-14)"  >
<g style=""  paint-order="stroke"   >
		<g transform="matrix(1 0 0 1 0 0)"  >
<linearGradient id="SVGID_1_458819" gradientUnits="userSpaceOnUse" gradientTransform="matrix(1 0 0 1 -100 -100)"  x1="0" y1="0" x2="0" y2="201">
<stop offset="0%" style="stop-color:rgb(91,36,122);stop-opacity: 1"/>
<stop offset="100%" style="stop-color:rgb(27,206,223);stop-opacity: 1"/>
</linearGradient>
<polygon style="stroke: none; stroke-width: 1; stroke-dasharray: none; stroke-linecap: butt; stroke-dashoffset: 0; stroke-linejoin: miter; stroke-miterlimit: 4; fill: url(#SVGID_1_458819); fill-rule: nonzero; opacity: 1;"  paint-order="stroke"  points="100,100 0,100 0,95.12 95.12,95.12 95.12,-95.12 -95.12,-95.12 -95.12,0 -100,0 -100,-100 100,-100 100,100 " />
</g>
</g>
</g>
</g>
</g>
<g transform="matrix(1.9692780337941633 0 0 1.9692780337941642 273.082582434008 508.76560311000827)" id="tagline-3a78d944-c0db-44d4-8ad5-60158c925687-logo-path"  >
<linearGradient id="SVGID_4_458821" gradientUnits="userSpaceOnUse" gradientTransform="matrix(1 0 0 1 11.050000000000004 -91.78)"  x1="0" y1="0" x2="0" y2="268">
<stop offset="0%" style="stop-color:rgb(91,36,122);stop-opacity: 1"/>
<stop offset="100%" style="stop-color:rgb(27,206,223);stop-opacity: 1"/>
</linearGradient>
<path style="stroke: rgb(255,255,255); stroke-width: 0; stroke-dasharray: none; stroke-linecap: butt; stroke-dashoffset: 0; stroke-linejoin: miter; stroke-miterlimit: 4; fill: url(#SVGID_4_458821); fill-rule: nonzero; opacity: 1;"  paint-order="stroke"  transform=" translate(-68.495, 44.845)" d="M 11.05 -17.25 L 11.05 -17.25 L 11.05 -28.97 L 20.69 -28.97 L 20.69 -16.71 Q 20.69 -11.72 24.16 -8.96 Q 27.63 -6.2 34.37 -6.2 Q 41.1 -6.2 44.57 -8.96 Q 48.04 -11.72 48.04 -16.48 Q 48.04 -21.23 47 -24.06 Q 45.96 -26.89 42.79 -30.05 L 42.79 -30.05 L 18.46 -53.84 Q 14.22 -58.08 12.63 -62.16 Q 11.05 -66.24 11.05 -72.44 L 11.05 -72.44 Q 11.05 -81.67 16.78 -86.72 Q 22.51 -91.78 34.1 -91.78 L 34.1 -91.78 Q 56.33 -91.78 56.33 -72.44 L 56.33 -72.44 L 56.33 -60.71 L 46.63 -60.71 L 46.63 -72.98 Q 46.63 -77.96 43.39 -80.72 Q 40.16 -83.49 33.66 -83.49 Q 27.16 -83.49 23.92 -80.72 Q 20.69 -77.96 20.69 -73.14 Q 20.69 -68.33 21.66 -65.56 Q 22.64 -62.8 25.94 -59.77 L 25.94 -59.77 L 50.67 -36.05 Q 54.65 -31.6 56.16 -27.53 Q 57.68 -23.45 57.68 -17.25 L 57.68 -17.25 Q 57.68 2.09 34.37 2.09 Q 11.05 2.09 11.05 -17.25 Z M 80.39 -17.25 L 80.39 -17.25 L 80.39 -72.44 Q 80.39 -81.67 86.05 -86.72 Q 91.71 -91.78 103.03 -91.78 Q 114.35 -91.78 120.14 -86.72 Q 125.94 -81.67 125.94 -72.44 L 125.94 -72.44 L 125.94 -59.36 L 116.3 -59.36 L 116.3 -72.44 Q 116.3 -83.49 103.16 -83.49 Q 90.02 -83.49 90.02 -72.44 L 90.02 -72.44 L 90.02 -17.25 Q 90.02 -6.2 103.16 -6.2 Q 116.3 -6.2 116.3 -17.25 L 116.3 -17.25 L 116.3 -24.86 L 125.94 -24.86 L 125.94 -17.25 Q 125.94 -8.02 120.28 -2.96 Q 114.62 2.09 103.3 2.09 Q 91.98 2.09 86.18 -2.96 Q 80.39 -8.02 80.39 -17.25 Z" stroke-linecap="round" />
</g>
</svg>